<?xml version="1.0" encoding="UTF-8"?>
<svg id="uuid-d14fc663-e025-49ff-8708-a66c3f73abd0" data-name="Layer 1" xmlns="http://www.w3.org/2000/svg" xmlns:xlink="http://www.w3.org/1999/xlink" viewBox="0 0 500 500">
  <defs>
    <style>
      .uuid-30d8d822-59ef-4f55-aae7-10951104908e {
        fill: #2b2427;
        fill-rule: evenodd;
      }

      .uuid-30d8d822-59ef-4f55-aae7-10951104908e, .uuid-f56f2995-0b83-4fdd-bec8-0aad245033b8 {
        stroke-width: 0px;
      }

      .uuid-f56f2995-0b83-4fdd-bec8-0aad245033b8 {
        fill: url(#uuid-9af0c225-f67f-4ee6-8581-707a2983a58d);
      }
    </style>
    <radialGradient id="uuid-9af0c225-f67f-4ee6-8581-707a2983a58d" cx="152.91" cy="50.85" fx="152.91" fy="50.85" r="636.95" gradientUnits="userSpaceOnUse">
      <stop offset="0" stop-color="#fff"/>
      <stop offset="1" stop-color="#dedede"/>
    </radialGradient>
  </defs>
  <rect class="uuid-f56f2995-0b83-4fdd-bec8-0aad245033b8" x="0" width="500" height="500"/>
  <path class="uuid-30d8d822-59ef-4f55-aae7-10951104908e" d="m249.91,100h-69.98c-48.29,0-68.45,96.07-52.28,112.24l139.95,140.02,35.36-45.47-138.99-139.06c-20.72-20.73-23.38-62.39,25.86-62.39-37.84,6.66-40.88,41.67-15.78,56.31h151.73c25.29-14.64,22.06-49.65-15.59-56.31,49.25,0,46.58,41.67,25.86,62.39l-78.91,78.95,40.5,40.33,74.72-74.77c16.17-16.17-3.99-112.24-52.29-112.24h-70.16Zm-84.42,141.16l27.19-27.2,3.23-3.42,3.43,3.42,15.59,15.6-6.65,6.66-12.36-12.36-6.27,6.28,7.99,7.99-6.66,6.66-7.98-7.99-10.83,11.03-6.66-6.66Zm127.59-23.4c4.37-4.38,10.27-6.47,16.16-6.28h.38v10.27c-.38,0-.57-.2-.76-.2-3.23,0-6.27,1.14-8.56,3.43-2.47,2.28-3.61,5.52-3.42,8.75,0,3.24,1.52,6.66,3.99,9.13,2.66,2.67,6.09,3.99,9.32,4.19,3.23,0,6.27-.96,8.74-3.43,2.28-2.28,3.43-5.51,3.23-8.56v-.77h10.27v.38c.18,5.9-1.91,11.8-6.28,16.17-4.37,4.38-10.27,6.47-16.16,6.28-5.89,0-11.78-2.47-16.35-7.04-4.38-4.37-6.85-10.27-7.04-16.17-.2-5.9,1.9-11.79,6.46-16.17h0Zm-50.2,124.04l-10.46,10.46-35.37-45.47,5.32-5.32,40.5,40.33Zm-70.73-9.9l-21.3,21.12c-1.52,1.52-1.52,4.19,0,5.89,1.72,1.52,4.19,1.52,5.9,0l20.34-20.55,2.67,3.24c-.2,0-.38.19-.38.19-7.03,7.03-14.07,14.07-21.3,21.31-1.52,1.52-1.52,4.18,0,5.7,1.71,1.72,4.37,1.72,5.89,0l20.73-20.73,2.47,3.24c-.2.19-.38.38-.57.57-7.03,7.04-14.07,14.07-21.11,21.12-1.71,1.71-1.71,4.19,0,5.9,1.52,1.52,4.19,1.52,5.71,0l21.11-21.12,2.47,3.43c-.2.19-.57.38-.77.57-7.22,7.23-14.25,14.26-21.29,21.31-1.52,1.52-1.52,4.18,0,5.7,1.52,1.72,4.18,1.72,5.89,0,7.04-7.03,14.07-14.08,21.11-21.11l.19-.2,2.66,3.43c-.57.18-.95.57-1.33.95l-21.3,21.31c-1.52,1.52-1.52,4.19,0,5.71,1.72,1.52,4.19,1.52,5.9,0l21.11-21.12c.19-.19.38-.38.38-.56v.19l17.68-17.69-35.18-45.47-17.68,17.69Zm155.73,0l21.29,21.12c1.52,1.52,1.52,4.19,0,5.89-1.7,1.52-4.17,1.52-5.89,0l-20.35-20.55-2.66,3.24c.19,0,.19.19.38.19,7.04,7.03,14.07,14.07,21.11,21.31,1.72,1.52,1.72,4.18,0,5.7-1.52,1.72-4.18,1.72-5.7,0l-20.72-20.73-2.47,3.24c.18.19.38.38.57.57,7.04,7.04,14.07,14.07,21.11,21.12,1.71,1.71,1.71,4.19,0,5.9-1.52,1.52-4.18,1.52-5.7,0l-21.1-21.12-2.47,3.43c.19.19.57.38.75.57,7.23,7.23,14.27,14.26,21.3,21.31,1.52,1.52,1.52,4.18,0,5.7-1.72,1.72-4.19,1.72-5.9,0-7.04-7.03-14.07-14.08-21.1-21.11l-.19-.2-2.67,3.43c.57.18.96.57,1.34.95l21.29,21.31c1.52,1.52,1.52,4.19,0,5.71-1.71,1.52-4.18,1.52-5.89,0l-21.11-21.12c-.19-.19-.38-.38-.38-.56v.19l-17.68-17.69,35.18-45.47,17.68,17.69Z"/>
</svg>